<svg width="110" height="110" viewBox="0 0 110 110" fill="none" xmlns="http://www.w3.org/2000/svg">
<path d="M103.555 61.6602C103.555 56.3292 99.2177 51.9922 93.8867 51.9922H79.5281C81.307 47.1825 82.4102 41.4696 83.0552 37.142C83.7066 32.7733 82.428 28.3512 79.5474 25.0091C76.6754 21.6769 72.5048 19.7656 68.1055 19.7656C66.3257 19.7656 64.8828 21.2085 64.8828 22.9883C64.8828 30.7736 60.4087 42.5264 55.1874 45.1443C49.3101 48.0904 37.7481 51.3554 35.4452 51.9922C34.0074 51.9922 4.61251 51.9922 3.2229 51.9922C1.44313 51.9922 0.000244165 53.4351 0.000244165 55.2148V100.332C2.93209e-05 102.112 1.44292 103.555 3.22269 103.555H12.8907V106.777C12.8907 108.557 14.3335 110 16.1133 110H29.4336C33.3698 110 36.7615 107.634 38.2684 104.251L60.8786 109.904C61.1342 109.968 61.3968 110 61.6602 110H80.9961C86.327 110 90.6641 105.663 90.6641 100.332C90.6641 99.0748 90.4228 97.8729 89.9843 96.7701C94.0853 95.6508 97.1094 91.8925 97.1094 87.4414C97.1094 86.1841 96.8681 84.9823 96.4296 83.8795C100.531 82.7602 103.555 79.0019 103.555 74.5508C103.555 72.0769 102.621 69.8171 101.087 68.1055C102.621 66.3938 103.555 64.1341 103.555 61.6602ZM12.8904 97.1094H6.44513V58.4375H12.8904V97.1094ZM32.6561 100.332C32.6561 102.109 31.2104 103.555 29.4334 103.555H19.3358V58.4375H32.6561V100.332ZM74.5508 71.3281H93.8867C95.6637 71.3281 97.1094 72.7738 97.1094 74.5508C97.1094 76.3278 95.6637 77.7734 93.8867 77.7734C91.4569 77.7734 76.5368 77.7734 74.5508 77.7734C72.771 77.7734 71.3281 79.2163 71.3281 80.9961C71.3281 82.7759 72.771 84.2188 74.5508 84.2188H87.4414C89.2184 84.2188 90.6641 85.6644 90.6641 87.4414C90.6641 89.2184 89.2184 90.6641 87.4414 90.6641C86.0752 90.6641 75.917 90.6641 74.5508 90.6641C72.771 90.6641 71.3281 92.107 71.3281 93.8867C71.3281 95.6665 72.771 97.1094 74.5508 97.1094H80.9961C82.7731 97.1094 84.2188 98.5551 84.2188 100.332C84.2188 102.109 82.7731 103.555 80.9961 103.555H62.057L39.1016 97.816V57.6589C43.4496 56.4104 52.6722 53.6151 58.0757 50.9062C65.4771 47.1956 70.0092 35.4591 71.0813 26.7375C72.4522 27.239 73.6897 28.085 74.6657 29.2172C76.3209 31.1373 77.0552 33.6793 76.6805 36.1915C75.1541 46.4297 73.2392 50.6322 71.6685 53.7735C71.169 54.7725 71.2222 55.9589 71.8094 56.9089C72.3966 57.8589 73.4338 58.4375 74.5508 58.4375H93.8867C95.6637 58.4375 97.1094 59.8832 97.1094 61.6602C97.1094 63.4371 95.6637 64.8828 93.8867 64.8828H74.5508C72.771 64.8828 71.3281 66.3257 71.3281 68.1055C71.3281 69.8852 72.771 71.3281 74.5508 71.3281Z" fill="#F9F9F9"/>
<path d="M71.3281 0C69.5484 0 68.1055 1.44289 68.1055 3.22266V10.0977C68.1055 11.8774 69.5484 13.3203 71.3281 13.3203C73.1079 13.3203 74.5508 11.8774 74.5508 10.0977V3.22266C74.5508 1.44289 73.1079 0 71.3281 0Z" fill="#F9F9F9"/>
<path d="M53.0982 16.3139L48.5407 11.7565C47.2824 10.4979 45.2418 10.4979 43.9832 11.7565C42.7247 13.015 42.7247 15.0554 43.9832 16.3139L48.5407 20.8714C49.799 22.13 51.8398 22.13 53.0982 20.8714C54.3567 19.6129 54.3567 17.5725 53.0982 16.3139Z" fill="#F9F9F9"/>
<path d="M42.324 35.8789H35.8787C34.0989 35.8789 32.656 37.3218 32.656 39.1016C32.656 40.8813 34.0989 42.3242 35.8787 42.3242H42.324C44.1037 42.3242 45.5466 40.8813 45.5466 39.1016C45.5466 37.3218 44.1037 35.8789 42.324 35.8789Z" fill="#F9F9F9"/>
<path d="M106.777 35.8789H100.332C98.5523 35.8789 97.1094 37.3218 97.1094 39.1016C97.1094 40.8813 98.5523 42.3242 100.332 42.3242H106.777C108.557 42.3242 110 40.8813 110 39.1016C110 37.3218 108.557 35.8789 106.777 35.8789Z" fill="#F9F9F9"/>
<path d="M98.6731 11.7565C97.4148 10.4979 95.3742 10.4979 94.1157 11.7565L89.5582 16.3139C88.2996 17.5725 88.2996 19.6129 89.5582 20.8714C90.8165 22.13 92.8573 22.13 94.1157 20.8714L98.6731 16.3139C99.9317 15.0554 99.9317 13.015 98.6731 11.7565Z" fill="#F9F9F9"/>
</svg>
