<svg width="110" height="110" viewBox="0 0 110 110" fill="none" xmlns="http://www.w3.org/2000/svg">
<path d="M66.1375 54.3836C66.767 55.0127 67.7871 55.0127 68.4163 54.3836L99.2954 23.5045C100.987 21.8124 101.919 19.5626 101.919 17.1699C101.919 14.7772 100.987 12.5273 99.2954 10.8354C97.6033 9.14332 95.3537 8.21133 92.9607 8.21133C90.5678 8.21133 88.3184 9.14332 86.6263 10.8352L83.0575 14.404L81.2747 12.6212C78.274 9.62092 73.3919 9.62092 70.3912 12.6212L46.081 36.9316C45.1909 37.8215 44.7008 39.0042 44.7008 40.2628C44.7008 41.5213 45.1909 42.7041 46.0808 43.5937C46.9706 44.4838 48.1534 44.9737 49.4119 44.9737C50.6705 44.9737 51.8532 44.4838 52.7429 43.5939L54.1621 42.1751C55.0019 41.3351 55.2795 40.1423 54.9951 39.0691L70.6406 23.4238C71.8373 22.2267 73.5904 21.8434 75.1392 22.3223L36.3982 61.0635L33.5279 63.9338L28.5813 68.8804C28.4541 69.0087 28.3456 69.161 28.2674 69.3238L25.0039 76.1389H1.61133C0.72123 76.1389 0 76.8601 0 77.7502V100.177C0 101.067 0.72123 101.788 1.61133 101.788H19.9074C20.7975 101.788 21.5188 101.067 21.5188 100.177C21.5188 99.287 20.7975 98.5658 19.9074 98.5658H3.22266V79.3616H23.4607L22.8557 80.6251C22.6804 80.9911 22.657 81.3985 22.7653 81.7708C20.6029 84.6426 20.1124 87.2158 21.514 88.6172C22.0492 89.1522 22.75 89.4137 23.5709 89.4137C24.9131 89.4137 26.5764 88.7122 28.3574 87.3679C28.5044 87.4109 28.6567 87.4332 28.8101 87.4332C29.046 87.4332 29.2834 87.3817 29.5056 87.2753L40.8068 81.8638C40.9692 81.7863 41.123 81.6771 41.2502 81.55L43.4386 79.3616H96.4992C97.3893 79.3616 98.1105 78.6403 98.1105 77.7502C98.1105 76.8601 97.3893 76.1389 96.4992 76.1389H46.6615L49.0677 73.7327L63.3001 59.5003C63.9293 58.8708 63.9293 57.8508 63.3001 57.2215C62.6706 56.5924 61.6505 56.5924 61.0212 57.2215L47.9284 70.3145L39.8166 62.2029L66.9159 35.1033L75.0275 43.2147L66.1375 52.1048C65.5082 52.7343 65.5082 53.7543 66.1375 54.3836ZM24.0105 86.1216C24.1323 85.6988 24.4191 85.0515 24.9573 84.2484L25.8831 85.1742C25.0813 85.7119 24.434 86.0002 24.0105 86.1216ZM29.1425 83.8761L26.255 80.9886L30.1907 72.7691L37.3618 79.9403L29.1425 83.8761ZM40.1111 78.1318L31.9995 70.0199L34.6672 67.3522L42.779 75.4639L40.1111 78.1318ZM45.6494 72.5933L45.0577 73.185L36.9458 65.0734L37.5375 64.4817L45.6494 72.5933ZM88.9051 13.1141C89.9884 12.0308 91.4289 11.4342 92.9607 11.4342C94.493 11.4342 95.9333 12.0308 97.0166 13.1143C99.2531 15.3506 99.2531 18.9896 97.0166 21.2259L96.3972 21.8453L88.2857 13.7335L88.9051 13.1141ZM86.0069 16.0125L94.1183 24.1242L93.448 24.7945L85.3366 16.6828L86.0069 16.0125ZM68.3618 21.1447L51.8833 37.6232C51.2542 38.2525 51.2542 39.2668 51.8835 39.8961L50.4642 41.3151C50.183 41.5963 49.8094 41.7508 49.4121 41.7508C49.0149 41.7508 48.6411 41.5961 48.3598 41.3149C48.0786 41.0336 47.9239 40.66 47.9239 40.2628C47.9239 39.8655 48.0788 39.4917 48.36 39.2107L72.67 14.9003C74.4139 13.156 77.2518 13.156 78.9957 14.9003L80.7785 16.683L77.5801 19.8816C74.623 18.2196 70.8127 18.694 68.3618 21.1447ZM83.0575 18.9617L91.1689 27.0733L82.2955 35.9468L74.1838 27.8354L83.0575 18.9617ZM69.1949 32.8245L71.905 30.1144L80.0166 38.2259L77.3066 40.9359L69.1949 32.8245Z" fill="#F9F9F9"/>
<path d="M108.389 76.1391H103.735C102.845 76.1391 102.124 76.8604 102.124 77.7505C102.124 78.6405 102.845 79.3618 103.735 79.3618H106.777V98.566H27.1433C26.2532 98.566 25.532 99.2872 25.532 100.177C25.532 101.067 26.2532 101.789 27.1433 101.789H108.389C109.279 101.789 110 101.067 110 100.177V77.7505C110 76.8604 109.279 76.1391 108.389 76.1391Z" fill="#F9F9F9"/>
<path d="M77.343 92.099H17.3301C16.44 92.099 15.7188 92.8202 15.7188 93.7103C15.7188 94.6004 16.44 95.3217 17.3301 95.3217H77.343C78.2331 95.3217 78.9544 94.6004 78.9544 93.7103C78.9544 92.8202 78.2331 92.099 77.343 92.099Z" fill="#F9F9F9"/>
<path d="M92.67 85.7946H42.7656C41.8755 85.7946 41.1543 86.5159 41.1543 87.406C41.1543 88.2961 41.8755 89.0173 42.7656 89.0173H92.67C93.5601 89.0173 94.2813 88.2961 94.2813 87.406C94.2813 86.5159 93.5601 85.7946 92.67 85.7946Z" fill="#F9F9F9"/>
<path d="M92.6698 92.099H82.8936C82.0035 92.099 81.2822 92.8202 81.2822 93.7103C81.2822 94.6004 82.0035 95.3217 82.8936 95.3217H92.6698C93.5599 95.3217 94.2811 94.6004 94.2811 93.7103C94.2811 92.8202 93.5599 92.099 92.6698 92.099Z" fill="#F9F9F9"/>
</svg>
