<svg width="110" height="110" viewBox="0 0 110 110" fill="none" xmlns="http://www.w3.org/2000/svg">
<g clip-path="url(#clip0)">
<path d="M106.204 55.397C106.124 55.3156 106.039 55.2383 105.952 55.1637L77.0485 30.5531C72.9614 27.0728 67.7598 25.1593 62.3938 25.1593C62.3678 25.1593 62.3417 25.1593 62.3157 25.1593C56.3076 25.1803 50.6587 27.531 46.4097 31.78L42.5115 35.6783C40.8674 37.3224 38.1693 37.3492 36.4958 35.7379C35.6927 34.9658 35.2445 33.9 35.2336 32.7393C35.2219 31.5207 35.7036 30.3332 36.5546 29.4814C36.5873 29.4487 36.62 29.4151 36.6519 29.3815L45.1055 20.3589C51.6432 13.3815 60.7422 9.23232 70.2658 8.83872L102.769 35.3401C104.608 36.8398 107.316 36.5645 108.814 34.7258C110.314 32.8862 110.039 30.1796 108.2 28.6799L74.472 1.1807C73.705 0.556306 72.7466 0.214737 71.7571 0.214737C63.6728 0.214737 55.7697 2.41773 48.8938 6.45277C41.9576 2.36737 34.0839 0.214737 26.0054 0.214737C24.8657 0.214737 23.773 0.667085 22.9673 1.47191L1.04485 23.3852C-0.633622 25.0636 -0.634461 27.7836 1.04317 29.4621C1.8824 30.3022 2.9818 30.7218 4.08204 30.7218C5.18144 30.7218 6.28084 30.3022 7.11923 29.4638L27.7434 8.84963C32.4205 9.07035 36.9834 10.1882 41.2148 12.1285C40.3949 12.8822 39.6001 13.666 38.8348 14.4826L30.4231 23.4607C27.9851 25.9289 26.6071 29.3362 26.6407 32.8215C26.6734 36.3086 28.0573 39.5438 30.5364 41.9298C32.9803 44.2813 36.1962 45.5586 39.5892 45.5292C42.9881 45.499 46.1839 44.1588 48.5875 41.7544L52.4866 37.8561C55.1193 35.2226 58.6214 33.7657 62.3451 33.7523H62.3938C65.7197 33.7523 68.944 34.9389 71.4777 37.0958L100.225 61.5737C101.551 63.0038 101.519 65.2479 100.127 66.6385C99.4443 67.3225 98.527 67.6985 97.5451 67.6985C96.5632 67.6985 95.6459 67.3225 94.9628 66.6385L94.0816 65.7565C92.4031 64.0788 89.6823 64.078 88.0047 65.7565C86.3271 67.4341 86.3262 70.1549 88.0047 71.8334L88.8867 72.7146C89.1461 72.9747 89.4171 73.2198 89.6958 73.4523C89.8191 73.6184 89.9509 73.7796 90.1011 73.9298C91.5253 75.354 91.5253 77.6711 90.1011 79.0953C88.6778 80.5195 86.3606 80.5195 84.9365 79.0953C84.9256 79.0844 84.9138 79.0726 84.9029 79.0617L83.4787 77.6476C81.8002 75.97 79.0803 75.97 77.4026 77.6484C75.7242 79.3261 75.7242 82.0469 77.4026 83.7245L78.3837 84.7056L78.3846 84.7064C79.1281 85.45 79.5771 86.5099 79.6149 87.6135C79.635 88.2152 79.5427 89.3499 78.6926 90.2C77.3481 91.5453 75.0201 91.406 73.5044 89.8904C73.4238 89.8098 73.3408 89.7326 73.2535 89.6587L72.6089 89.109C70.8541 87.6127 68.2298 87.7696 66.6655 89.464C65.1003 91.1584 65.1523 93.7861 66.783 95.4176C67.4997 96.1343 67.9008 97.0725 67.9126 98.0586C67.9235 99.0145 67.5618 99.9083 66.8946 100.576C65.4704 102 63.1247 101.97 61.6511 100.497L61.0434 99.8949C62.7983 95.4209 61.8734 90.1287 58.2631 86.5183V86.5175C56.6467 84.9019 54.677 83.7698 52.5428 83.2025C53.0732 79.5115 51.921 75.6234 49.0877 72.7893C46.9644 70.666 44.2487 69.4902 41.4674 69.2552C41.2576 66.4908 40.076 63.7784 37.9158 61.6182C35.7799 59.4824 33.0449 58.3049 30.2469 58.08C30.022 55.282 28.8445 52.5469 26.7087 50.4111C21.9443 45.6467 14.1973 45.6367 9.42041 50.3809L3.41569 56.1783C3.39806 56.1959 3.3796 56.2135 3.36198 56.2312C1.05576 58.5374 -0.214844 61.6132 -0.214844 64.8904C-0.214844 68.1668 1.05576 71.2426 3.36198 73.5488C5.18731 75.375 7.45157 76.4995 9.81737 76.9292C9.70659 80.2031 10.895 83.513 13.3883 86.0064C15.6123 88.2304 18.5798 89.4456 21.7698 89.4456C21.8302 89.4456 21.8914 89.4447 21.9519 89.4439C22.2993 91.9977 23.4474 94.4575 25.4011 96.4104C27.777 98.7863 30.9006 99.9729 34.0327 99.9729C34.2962 99.9729 34.5589 99.9612 34.8224 99.9444C35.2772 102.445 36.4706 104.746 38.296 106.571C40.7256 109 43.9155 110.214 47.1071 110.214C50.2223 110.214 53.3376 109.052 55.7445 106.735C58.1405 109.052 61.2423 110.214 64.3391 110.214C67.4711 110.214 70.5956 109.027 72.9706 106.652C74.8715 104.751 76.0582 102.332 76.4014 99.7094C79.4605 99.7044 82.4809 98.5647 84.7686 96.2761C86.7786 94.2661 87.9594 91.6259 88.1734 88.7305C91.2039 88.5728 94.0254 87.324 96.178 85.1713C98.6714 82.678 99.8597 79.3672 99.749 76.0925C102.184 75.6544 104.424 74.4954 106.204 72.7146C110.979 67.9402 110.979 60.1714 106.204 55.397ZM14.6572 67.4198C14.6396 67.4375 14.6212 67.4551 14.6035 67.4727C13.9204 68.1567 13.0031 68.5327 12.0212 68.5327C11.0393 68.5327 10.122 68.1567 9.43888 67.4727C8.7549 66.7887 8.37892 65.8723 8.37892 64.8904C8.37892 63.9186 8.74735 63.0113 9.41706 62.3299L15.4134 56.54C15.4319 56.5224 15.4495 56.5048 15.4671 56.4871C16.1511 55.804 17.0684 55.4272 18.0503 55.4272C19.0313 55.4272 19.9486 55.804 20.6326 56.4871C21.3157 57.1711 21.6925 58.0884 21.6925 59.0703C21.6925 59.886 21.4299 60.6556 20.949 61.2859C20.8365 61.3891 20.7241 61.4932 20.615 61.6023L16.2073 65.9235L14.6572 67.4198ZM24.5292 79.76C23.0261 81.1472 20.761 81.2261 19.4652 79.9303C18.0452 78.5103 18.041 76.2016 19.4526 74.7766L22.2045 72.0784L26.6549 67.7824C26.6734 67.7648 26.691 67.7471 26.7087 67.7295C26.8245 67.6137 26.9344 67.4962 27.0435 67.377C28.4744 66.2844 30.5322 66.3876 31.8397 67.6951C33.2547 69.1101 33.2631 71.1578 31.8624 72.5711L24.5292 79.76ZM36.7224 90.2546C36.7174 90.2596 36.7115 90.2655 36.7065 90.2705C35.247 91.73 32.9014 91.7585 31.4772 90.3343C30.0555 88.9127 30.0824 86.572 31.5351 85.1118L37.8302 78.8821C37.8361 78.8771 37.8411 78.8712 37.8461 78.8662C38.5301 78.1822 39.4474 77.8062 40.4293 77.8062C41.4104 77.8062 42.3277 78.1822 43.0116 78.8662C44.4333 80.2878 44.4358 82.5999 43.0184 84.0249L36.7224 90.2546ZM52.187 98.0637C52.1685 98.0813 52.1501 98.0998 52.1324 98.1191L49.8187 100.517C48.3097 102.002 45.8726 101.995 44.3729 100.495C43.6318 99.7539 43.2181 98.7602 43.2072 97.6978C43.1963 96.6571 43.5798 95.6954 44.2864 94.9879L46.8646 92.4097C47.5527 91.7216 48.4457 91.3808 49.3588 91.3808C50.3575 91.3808 51.3805 91.7887 52.1862 92.5944C53.6943 94.1025 53.6943 96.5556 52.187 98.0637Z" fill="#F9F9F9"/>
</g>
<defs>
<clipPath id="clip0">
<rect width="110" height="110" fill="white"/>
</clipPath>
</defs>
</svg>
