<svg width="110" height="108" viewBox="0 0 110 108" fill="none" xmlns="http://www.w3.org/2000/svg">
<g clip-path="url(#clip0)">
<path d="M36.2994 80.7977C35.7196 78.1665 34.8849 77.0427 33.2476 75.2682L25.0502 66.3855C25.0309 66.3646 25.0111 66.3441 24.9912 66.3241C23.1137 64.4475 20.1185 64.4064 17.8696 66.2254C15.5894 68.07 15.1797 70.985 16.8733 73.3149C16.8811 73.3258 16.889 73.3362 16.897 73.3467L20.6279 78.28C22.0409 80.1473 22.0238 80.187 21.5855 81.2103L21.0943 82.3562C20.9165 82.3012 20.6084 82.1714 20.1508 81.8644L15.0291 78.4286C14.4881 78.0655 13.8148 77.6139 13.6926 77.4296C13.5669 77.2404 13.4281 76.4128 13.3362 75.8655L12.3969 70.2632C12.1176 68.599 12.1176 68.599 12.625 67.0988C12.6899 66.9074 12.7606 66.698 12.8375 66.4662L14.6995 60.8564C15.6872 57.8814 16.2834 56.0857 13.8305 52.9042C13.114 51.9746 11.7184 51.023 9.95259 51.1353C9.01201 51.1959 7.23376 51.6446 5.89099 53.9707L1.16896 62.1519C0.0285692 64.1276 -0.0137548 65.0927 0.0034326 66.9185C0.00515134 67.1057 0.00708493 67.3076 0.00751462 67.5273C0.0105224 69.5018 0.0642331 71.2582 0.116225 72.9567C0.178315 74.9827 0.236967 76.8964 0.216127 79.1525C0.186908 82.3169 0.804797 83.2693 2.20471 85.122C2.426 85.4148 2.67586 85.7454 2.95752 86.1352C4.36517 88.0815 5.39642 89.3213 6.39351 90.5201C7.38995 91.7178 8.33117 92.8495 9.65568 94.6809C12.8427 99.0888 12.5189 100.229 11.5575 103.612C11.4726 103.911 11.3843 104.222 11.2947 104.548C11.1218 105.175 11.2588 105.845 11.6655 106.361C12.0722 106.876 12.7022 107.178 13.3701 107.178H35.4839C36.4285 107.178 37.2624 106.578 37.5384 105.699C40.6068 95.9309 38.8661 89.9399 37.3302 84.6543C36.9452 83.329 36.5815 82.0772 36.2994 80.7977ZM33.8622 102.998H16.1577C16.9283 99.7244 16.7332 97.2039 13.1703 92.2762C11.7626 90.3295 10.7312 89.0895 9.73388 87.8907C8.73766 86.693 7.79643 85.5615 6.47214 83.7303C6.16771 83.3092 5.90151 82.9572 5.66669 82.6462C4.56132 81.1835 4.49515 81.0959 4.51256 79.1901C4.53404 76.8525 4.47152 74.8088 4.41093 72.8321C4.3598 71.1627 4.30695 69.4364 4.30394 67.521C4.30373 67.29 4.30158 67.0775 4.29965 66.8804C4.28611 65.4411 4.28482 65.2908 4.91517 64.1984L9.6372 56.018C9.91929 55.5287 10.1565 55.3465 10.237 55.3097C10.2839 55.3233 10.3619 55.3745 10.3926 55.4127C11.51 56.8619 11.493 56.9127 10.6102 59.5721L8.74818 65.1821C8.67385 65.4058 8.60553 65.6079 8.54301 65.793C7.8336 67.8905 7.74057 68.4617 8.15565 70.9363L9.09494 76.5386C9.59101 79.4953 10.0155 80.1429 12.5889 81.8698L17.7108 85.3059C19.4175 86.451 21.0013 86.8259 22.4182 86.4205C23.5863 86.0861 24.5189 85.2269 25.0444 84.0007L25.551 82.8185C26.9413 79.5732 25.6189 77.8256 24.0877 75.8023L20.3699 70.8864C20.2163 70.6736 19.8193 70.0845 20.6163 69.4395C20.8271 69.269 21.5056 68.8705 21.8923 69.2211L30.0496 78.0605C31.4036 79.5279 31.7289 80.0006 32.0977 81.6742C32.4086 83.0849 32.8084 84.4607 33.1949 85.791C34.5527 90.4622 35.9535 95.282 33.8622 102.998Z" fill="#F9F9F9"/>
<path d="M18.8822 53.3803C20.2249 55.7066 22.0032 56.1551 22.9438 56.2157C23.0405 56.2218 23.1361 56.2249 23.2304 56.2249C24.8602 56.2249 26.1443 55.3252 26.8217 54.4466C29.2746 51.2653 28.6784 49.4696 27.6905 46.4942L25.8285 40.8846C25.7516 40.653 25.6807 40.4436 25.616 40.2522C25.1087 38.752 25.1087 38.752 25.3878 37.0874L26.3271 31.4857C26.4191 30.9382 26.5579 30.1103 26.6835 29.9212C26.8058 29.7369 27.4789 29.2854 28.0199 28.9226L33.1417 25.4866C33.5991 25.1796 33.9072 25.0498 34.0853 24.9948L34.5764 26.1407C35.0149 27.164 35.0319 27.2039 33.6189 29.071L29.8879 34.0041C29.88 34.0145 29.872 34.0252 29.8643 34.0359C28.1707 36.3655 28.5804 39.281 30.8605 41.1253C33.1097 42.9446 36.1046 42.9032 37.9821 41.0267C38.0023 41.0066 38.0221 40.9861 38.0412 40.9652L46.2388 32.0824C47.8759 30.3083 48.7105 29.1845 49.2904 26.5533C49.5725 25.2738 49.936 24.0224 50.321 22.6971C51.8569 17.4115 53.5978 11.4205 50.5294 1.65193C50.2535 0.773325 49.4195 0.173096 48.4748 0.173096H26.3611C25.6931 0.173096 25.0632 0.4753 24.6565 0.990678C24.2498 1.50626 24.113 2.1763 24.2857 2.8039C24.3753 3.12952 24.4636 3.44008 24.5484 3.73894C25.5099 7.12275 25.8336 8.26281 22.6466 12.6705C21.3221 14.5023 20.3811 15.6336 19.3847 16.8313C18.3874 18.0301 17.3561 19.2701 15.9485 21.2164C15.667 21.6056 15.4172 21.9362 15.1961 22.229C13.7958 24.0817 13.1779 25.0343 13.2071 28.1989C13.2279 30.4552 13.1693 32.3687 13.1072 34.3947C13.0552 36.0934 13.0013 37.8496 12.9985 39.8241C12.9983 40.0436 12.9961 40.2455 12.9944 40.4327C12.9772 42.2583 13.0195 43.2236 14.1599 45.1997L18.8822 53.3803ZM17.291 40.4712C17.293 40.2741 17.2949 40.0618 17.2953 39.8306C17.2983 37.9152 17.3512 36.1889 17.4023 34.5195C17.4629 32.5428 17.5254 30.4989 17.504 28.1615C17.4863 26.2555 17.5527 26.1679 18.6583 24.7049C18.8931 24.3944 19.1591 24.0422 19.4633 23.6215C20.7878 21.7897 21.7288 20.6584 22.7253 19.4607C23.7226 18.2619 24.7538 17.0219 26.1617 15.0754C29.7244 10.1475 29.9195 7.62705 29.1489 4.35296H46.8534C48.9447 12.0696 47.5437 16.8896 46.1866 21.5608C45.8001 22.8911 45.4002 24.2667 45.0894 25.6776C44.7205 27.3512 44.3954 27.8237 43.0417 29.2907L34.8841 38.1303C34.4976 38.4809 33.8191 38.0824 33.6081 37.9119C32.8109 37.2669 33.2083 36.6773 33.3619 36.4648L37.0796 31.5491C38.6108 29.5256 39.9331 27.7782 38.5431 24.5331L38.0365 23.3505C37.5112 22.1245 36.5784 21.2651 35.4102 20.9309C33.9936 20.5257 32.4095 20.9004 30.7028 22.0455L25.5808 25.4816C23.0074 27.2083 22.5831 27.8557 22.087 30.813L21.1477 36.4146C20.7324 38.8899 20.8256 39.4609 21.5351 41.5584C21.5976 41.7435 21.6659 41.9456 21.7402 42.169L23.6023 47.7788C24.4853 50.4387 24.502 50.4895 23.3851 51.9382C23.3539 51.9771 23.2759 52.0281 23.2291 52.0417C23.1483 52.0049 22.9113 51.8227 22.6292 51.3334L17.9072 43.153C17.2762 42.061 17.2775 41.9105 17.291 40.4712Z" fill="#F9F9F9"/>
<path d="M108.831 62.1515L104.109 53.9711C102.766 51.6448 100.988 51.1963 100.047 51.1357C98.2823 51.0254 96.8861 51.9752 96.1691 52.9048C93.7165 56.0861 94.3127 57.8816 95.3003 60.8568L97.1624 66.467C97.2393 66.6982 97.31 66.9076 97.3748 67.099C97.8823 68.5992 97.8823 68.5992 97.6032 70.2638L96.6639 75.8657C96.5722 76.4132 96.4332 77.2408 96.3077 77.43C96.1855 77.6143 95.5122 78.066 94.9714 78.4288L89.8495 81.8648C89.3921 82.1718 89.0838 82.3016 88.906 82.3566L88.4148 81.2107C87.9763 80.1874 87.9594 80.1473 89.3726 78.2802L93.1033 73.3471C93.1113 73.3364 93.1192 73.326 93.127 73.3153C94.8206 70.9857 94.4109 68.0704 92.1307 66.2259C89.8818 64.4068 86.8866 64.4475 85.0091 66.3245C84.9889 66.3446 84.9692 66.365 84.95 66.3859L76.7525 75.2688C75.1154 77.0431 74.2807 78.1669 73.7009 80.7981C73.4188 82.0776 73.0553 83.329 72.6703 84.654C71.1344 89.9399 69.3937 95.9309 72.4621 105.699C72.7382 106.578 73.572 107.179 74.5166 107.179H96.63C97.2979 107.179 97.9279 106.876 98.3346 106.361C98.7413 105.845 98.8781 105.175 98.7054 104.548C98.6158 104.222 98.5275 103.912 98.4426 103.613C97.4812 100.229 97.1574 99.0888 100.344 94.6813C101.669 92.8497 102.61 91.7184 103.606 90.5207C104.603 89.3217 105.635 88.082 107.043 86.1352C107.324 85.7458 107.574 85.4152 107.795 85.1224C109.196 83.2697 109.813 82.3173 109.784 79.1529C109.763 76.8966 109.822 74.9833 109.884 72.9571C109.936 71.2584 109.99 69.502 109.993 67.5275C109.993 67.3078 109.995 67.1061 109.997 66.9189C110.014 65.0927 109.972 64.1274 108.831 62.1515ZM105.7 66.8802C105.698 67.0773 105.696 67.2896 105.696 67.5208C105.693 69.4362 105.64 71.1627 105.589 72.8321C105.528 74.8088 105.466 76.8525 105.487 79.1899C105.505 81.0957 105.438 81.1833 104.333 82.646C104.098 82.9566 103.832 83.309 103.528 83.7301C102.203 85.5617 101.262 86.6932 100.265 87.8909C99.268 89.0897 98.237 90.3295 96.8294 92.276C93.2664 97.2037 93.0711 99.7241 93.842 102.998H76.1376C74.0463 95.2818 75.4473 90.4618 76.8045 85.7906C77.191 84.4603 77.5908 83.0847 77.9017 81.6738C78.2706 80.0002 78.5956 79.5276 79.9496 78.0605L88.1072 69.2209C88.4939 68.8705 89.1721 69.2688 89.3831 69.4393C90.1802 70.0843 89.7832 70.6734 89.6295 70.8862L85.9121 75.8019C84.3807 77.8256 83.0581 79.573 84.4484 82.8183L84.955 84.0009C85.4803 85.2269 86.4131 86.0863 87.5812 86.4205C88.9979 86.8255 90.5819 86.451 92.2887 85.3059L97.4107 81.8696C99.9841 80.1429 100.409 79.4953 100.904 76.5384L101.844 70.9366C102.259 68.4613 102.166 67.8901 101.456 65.7926C101.394 65.6077 101.325 65.4056 101.251 65.1823L99.389 59.5721C98.5062 56.9125 98.4892 56.8617 99.6062 55.4132C99.6374 55.3743 99.7153 55.3233 99.7622 55.3097C99.843 55.3465 100.08 55.5287 100.362 56.018L105.084 64.1982C105.715 65.2904 105.714 65.4409 105.7 66.8802Z" fill="#F9F9F9"/>
<path d="M60.8308 26.5537C61.4107 29.1851 62.2453 30.3091 63.8827 32.0832L72.0802 40.9659C72.0993 40.9868 72.1191 41.0073 72.1393 41.0273C74.0168 42.9039 77.0119 42.9453 79.2609 41.126C81.541 39.2816 81.9505 36.3664 80.2569 34.0365C80.2492 34.0256 80.2412 34.015 80.2333 34.0047L76.5027 29.0717C75.0895 27.2043 75.1067 27.1644 75.5452 26.1407L76.0359 24.9952C76.2138 25.0502 76.5221 25.18 76.9795 25.487L82.1011 28.9231C82.6421 29.2859 83.3152 29.7375 83.4374 29.9216C83.5629 30.1108 83.7075 30.9718 83.7937 31.4859L84.7329 37.088C85.012 38.7524 85.012 38.7524 84.5048 40.2524C84.4399 40.444 84.3692 40.6534 84.2923 40.8852L82.4303 46.4942C81.4424 49.4696 80.8462 51.2655 83.2991 54.4472C83.9765 55.3258 85.2602 56.2253 86.8904 56.2253C86.9847 56.2253 87.0805 56.2222 87.177 56.2161C88.1176 56.1555 89.8958 55.7068 91.2386 53.3807L95.9606 45.2003C97.101 43.2245 97.1433 42.2591 97.1262 40.4334C97.1244 40.2461 97.1225 40.0442 97.1221 39.8248C97.1191 37.8502 97.0654 36.0938 97.0134 34.3953C96.9513 32.3694 96.8926 30.4556 96.9135 28.1995C96.9427 25.0347 96.3248 24.0824 94.9245 22.2296C94.7034 21.937 94.4535 21.6064 94.1721 21.2173C92.7644 19.2707 91.7332 18.0307 90.7359 16.832C89.7394 15.6342 88.7982 14.5027 87.4739 12.6713C84.2867 8.26323 84.6105 7.12338 85.5719 3.73957C85.6568 3.44071 85.7451 3.13014 85.8347 2.80453C86.0076 2.17692 85.8705 1.50689 85.4638 0.991306C85.058 0.475301 84.4281 0.173097 83.7601 0.173097H61.6464C60.7017 0.173097 59.8679 0.773326 59.5918 1.65235C56.5232 11.4209 58.2641 17.4119 59.8 22.6976C60.185 24.0228 60.5487 25.2742 60.8308 26.5537ZM63.268 4.35296H80.9723C80.2017 7.62705 80.3968 10.1475 83.9597 15.0754C85.3674 17.0219 86.3986 18.2619 87.3959 19.4607C88.3924 20.6584 89.3336 21.7899 90.6579 23.6215C90.9621 24.0422 91.2281 24.3942 91.4629 24.7049C92.5685 26.1679 92.6349 26.2555 92.6173 28.1615C92.5958 30.4989 92.6583 32.5428 92.7189 34.5195C92.77 36.1889 92.8229 37.9152 92.8259 39.8306C92.8261 40.0618 92.8282 40.2741 92.8302 40.4712C92.8437 41.9105 92.845 42.0608 92.2144 43.1532L87.4924 51.3336C87.2101 51.8229 86.9731 52.0051 86.8925 52.0419C86.8457 52.0283 86.7677 51.9771 86.737 51.9389C85.6196 50.4895 85.6366 50.4387 86.5196 47.7786L88.3816 42.1695C88.456 41.9459 88.5243 41.7438 88.5868 41.5586C89.2962 39.4611 89.3892 38.89 88.9742 36.4151L88.0349 30.813C87.539 27.8564 87.1145 27.2085 84.5411 25.4818L79.4192 22.0457C78.1566 21.1987 76.9614 20.7729 75.8509 20.7729C75.4605 20.7729 75.0805 20.8256 74.7116 20.9312C73.5435 21.2655 72.6109 22.1247 72.0854 23.3511L71.579 24.5332C70.1885 27.7786 71.5111 29.5262 73.0427 31.5497L76.7599 36.465C76.9135 36.6775 77.3112 37.2671 76.5137 37.9121C76.3029 38.0826 75.6245 38.4814 75.2378 38.1305L67.0804 29.2911C65.7264 27.8238 65.4014 27.3514 65.0325 25.6776C64.7216 24.2669 64.3218 22.8913 63.9353 21.5611C62.5775 16.8896 61.1765 12.0696 63.268 4.35296Z" fill="#F9F9F9"/>
<path d="M74.851 48.7438C69.7498 43.7973 61.4495 43.7967 56.3482 48.7435C55.4633 49.6015 54.3221 49.3931 53.6522 48.7438C51.6017 46.7554 48.9924 45.5119 46.106 45.1478C44.9284 44.9994 43.8516 45.807 43.6991 46.9516C43.5466 48.0963 44.3767 49.1446 45.5534 49.293C47.4928 49.5377 49.2444 50.3714 50.6188 51.7042C53.0758 54.0863 56.9249 54.0865 59.3818 51.7039C62.8105 48.3793 68.389 48.3795 71.8174 51.7039C74.3042 54.1155 75.0225 57.0724 74.0129 60.7431C71.5194 69.8097 59.89 79.0719 55.0001 80.8106C52.5361 79.9345 48.1964 77.0997 44.0358 72.9618C39.1608 68.1135 36.0928 62.9783 35.6186 58.8735C35.4861 57.7263 34.423 56.8991 33.2437 57.03C32.0647 57.1587 31.216 58.193 31.3486 59.3402C32.1414 66.2035 37.7133 72.6516 40.9639 75.8846C45.5506 80.4463 50.9686 84.1181 54.4454 85.0214C54.6271 85.0686 54.8134 85.0922 54.9999 85.0922C55.1864 85.0922 55.3726 85.0686 55.5542 85.0214C61.5374 83.4669 75.1993 72.6019 78.1635 61.8237C79.5656 56.7273 78.42 52.2045 74.851 48.7438Z" fill="#F9F9F9"/>
<path d="M36.6644 48.1339C35.4778 48.1339 34.5168 49.0698 34.5168 50.2239C34.5168 51.3779 35.4793 52.3138 36.6659 52.3138C37.8525 52.3138 38.8144 51.3779 38.8144 50.2239C38.8144 49.0698 37.8525 48.1339 36.6659 48.1339H36.6644Z" fill="#F9F9F9"/>
</g>
<defs>
<clipPath id="clip0">
<rect width="110" height="107.005" fill="white" transform="translate(0 0.173096)"/>
</clipPath>
</defs>
</svg>
