<svg width="110" height="110" viewBox="0 0 110 110" fill="none" xmlns="http://www.w3.org/2000/svg">
<path d="M95.193 62.0636C96.464 57.6918 97.1085 53.1604 97.1085 48.5536C97.1085 21.8322 75.274 0 48.5549 0C21.8334 0 0.0012207 21.8345 0.0012207 48.5536C0.0012207 75.2077 21.7823 96.8925 48.5549 96.8925C55.2134 96.8925 61.7928 95.5491 67.7901 92.9948C71.3564 100.715 77.9818 106.847 86.4218 109.66L87.4408 110L88.4597 109.66C101.343 105.366 109.999 93.3394 109.999 79.7335V64.6666H106.776C102.368 64.6666 98.2916 63.4085 95.193 62.0636ZM64.8826 64.6666V79.7335C64.8826 82.1794 65.1639 84.574 65.6975 86.882C60.3822 89.2197 54.5087 90.4473 48.5549 90.4473C25.3361 90.4473 6.44639 71.6538 6.44639 48.5536C6.44639 25.3349 25.3361 6.44517 48.5549 6.44517C71.7736 6.44517 90.6633 25.3349 90.6633 48.5536C90.6633 52.0613 90.2317 55.5168 89.382 58.8713C89.376 58.8668 87.444 57.4375 87.444 57.4375L85.5222 58.855C85.4432 58.913 77.533 64.6666 68.1052 64.6666H64.8826ZM103.554 79.7335C103.554 90.1981 97.1229 99.4875 87.4408 103.182C77.7586 99.4875 71.3278 90.1981 71.3278 79.7335V70.941C78.5509 70.1834 84.5189 67.0855 87.4408 65.3014C90.3626 67.0855 96.3306 70.1834 103.554 70.941V79.7335Z" fill="#F9F9F9"/>
<path d="M86.082 73.3255C82.028 75.21 79.2542 75.8765 77.7727 76.3738V79.7345C77.7727 85.7683 80.6876 91.448 85.5703 94.9273L87.4405 96.26L89.3106 94.9273C94.1933 91.448 97.1082 85.7685 97.1082 79.7345V76.3738C95.6768 75.8932 92.9152 75.2388 88.7989 73.3255L87.4405 72.6938L86.082 73.3255ZM90.5941 81.0365C90.315 83.659 89.2004 86.1127 87.4405 88.0269C85.6807 86.1127 84.5659 83.6588 84.2868 81.0365C85.3402 80.6538 86.3936 80.2345 87.4405 79.7803C88.4876 80.2345 89.5407 80.6538 90.5941 81.0365Z" fill="#F9F9F9"/>
<path d="M45.3323 12.8904H51.7776V19.3357H45.3323V12.8904Z" fill="#F9F9F9"/>
<path d="M45.3323 77.5569H51.7776V84.0022H45.3323V77.5569Z" fill="#F9F9F9"/>
<path d="M12.8916 45.3311H19.3369V51.7764H12.8916V45.3311Z" fill="#F9F9F9"/>
<path d="M77.7729 45.3311H84.2183V51.7764H77.7729V45.3311Z" fill="#F9F9F9"/>
<path d="M51.7775 25.7807H45.3323V47.2188L33.3857 59.1652L37.9431 63.7228L49.8897 51.7762H64.8827V45.3311H51.7775V25.7807Z" fill="#F9F9F9"/>
</svg>
