<svg width="110" height="110" viewBox="0 0 110 110" fill="none" xmlns="http://www.w3.org/2000/svg">
<g clip-path="url(#clip0)">
<path d="M100.202 18.9945C85.0674 14.8476 69.8438 8.39049 56.177 0.321402C55.451 -0.10721 54.5502 -0.10721 53.8245 0.321402C39.7634 8.6223 25.3624 14.7301 9.79812 18.9945C8.79265 19.2697 8.0957 20.1837 8.0957 21.2263V44.869C8.0957 69.2156 19.3275 85.3315 28.7501 94.5635C38.8941 104.503 50.7105 110 55.0007 110C59.2905 110 71.1069 104.503 81.2509 94.5635C90.6733 85.3317 101.904 69.2159 101.904 44.869V21.2261C101.904 20.1837 101.208 19.2697 100.202 18.9945ZM97.2767 44.8687C97.2767 67.6084 86.8008 82.6464 78.012 91.2577C68.0366 101.032 57.3711 105.372 55.0007 105.372C52.6304 105.372 41.9643 101.032 31.9886 91.2577C23.2 82.6462 12.7236 67.6084 12.7236 44.8687V22.9826C27.6076 18.7567 41.4688 12.859 55.0012 4.9951C68.1956 12.6504 82.7484 18.8413 97.2767 22.9818V44.8687Z" fill="#F9F9F9"/>
<path d="M34.4906 22.7238C34.0223 21.5346 32.6788 20.9504 31.4895 21.419C27.3559 23.0477 23.1132 24.5469 18.8792 25.8751C17.9144 26.178 17.2578 27.0718 17.2578 28.0828V37.0184C17.2578 38.2962 18.294 39.3322 19.5717 39.3322C20.8493 39.3322 21.8855 38.2962 21.8855 37.0184V29.7738C25.6838 28.5449 29.4779 27.1856 33.1859 25.7245C34.375 25.2563 34.9592 23.9129 34.4906 22.7238Z" fill="#F9F9F9"/>
<path d="M38.886 23.1627C39.1965 23.1627 39.5117 23.1002 39.8139 22.9683L39.8565 22.9498C41.0272 22.4367 41.5544 21.074 41.0413 19.9037C40.5279 18.733 39.1574 18.2035 37.988 18.7161L37.9506 18.7322C36.7793 19.2437 36.2503 20.6054 36.7619 21.7763C37.1415 22.6456 37.9934 23.1627 38.886 23.1627Z" fill="#F9F9F9"/>
<path d="M82.5694 74.6114C81.5001 73.9125 80.0662 74.2131 79.3665 75.2828C77.4598 78.2012 75.2228 80.9959 72.7169 83.5884C70.6561 85.7201 68.423 87.707 66.0797 89.4934C65.0637 90.2681 64.8682 91.72 65.6427 92.7365C66.0984 93.3335 66.7874 93.6476 67.4844 93.6476C67.9738 93.6476 68.4669 93.4931 68.8858 93.1735C71.4134 91.2461 73.8218 89.1035 76.0437 86.8051C78.7531 84.0027 81.1744 80.9777 83.2408 77.8141C83.9401 76.7442 83.6391 75.3103 82.5694 74.6114Z" fill="#F9F9F9"/>
<path d="M60.7058 93.1223L60.5731 93.2005C59.4673 93.841 59.0894 95.2564 59.7296 96.3622C60.1586 97.1034 60.9353 97.5172 61.7343 97.5172C62.1275 97.5172 62.5266 97.4169 62.8912 97.2052L63.0444 97.1152C64.1472 96.4694 64.5176 95.0521 63.8718 93.9493C63.2255 92.8469 61.808 92.4772 60.7058 93.1223Z" fill="#F9F9F9"/>
<path d="M39.2282 50.2774C37.8074 48.8564 35.9178 48.0744 33.9082 48.0744C31.8986 48.0744 30.0088 48.8567 28.5874 50.2774C25.6541 53.2113 25.6541 57.9851 28.5874 60.9188L42.2506 74.5816C43.6715 76.0021 45.5611 76.7844 47.5709 76.7844C49.5808 76.7844 51.4704 76.0021 52.8915 74.5811L81.4144 46.0581C84.3474 43.1236 84.3474 38.3504 81.4139 35.4176C79.993 33.9966 78.1034 33.2146 76.0933 33.2146C74.0835 33.2146 72.1939 33.9968 70.7727 35.4176L47.5707 58.6196L39.2282 50.2774ZM74.0452 38.6901C74.592 38.1433 75.3197 37.8423 76.0935 37.8423C76.8678 37.8423 77.5949 38.1433 78.1421 38.6901C79.2711 39.8191 79.2711 41.6568 78.1416 42.7863L49.6193 71.3089C49.0725 71.8556 48.3448 72.1566 47.5709 72.1566C46.7971 72.1566 46.0694 71.8556 45.5224 71.3089L31.8597 57.6465C30.7302 56.5171 30.7302 54.6793 31.8592 53.5503C32.4062 53.0036 33.1339 52.7021 33.908 52.7021C34.6821 52.7021 35.4093 53.0031 35.9561 53.5499L45.9345 63.5285C46.3687 63.9623 46.9569 64.2061 47.5707 64.2061C48.1845 64.2061 48.7728 63.9625 49.2066 63.5285L74.0452 38.6901Z" fill="#F9F9F9"/>
</g>
<defs>
<clipPath id="clip0">
<rect width="110" height="110" fill="white"/>
</clipPath>
</defs>
</svg>
