<svg width="90" height="90" viewBox="0 0 90 90" fill="none" xmlns="http://www.w3.org/2000/svg">
<path d="M71.1283 55.7518C69.2858 53.8333 67.0634 52.8076 64.708 52.8076C62.3716 52.8076 60.1302 53.8143 58.2117 55.7328L52.2092 61.7163C51.7153 61.4504 51.2215 61.2034 50.7466 60.9565C50.0628 60.6146 49.4169 60.2916 48.8661 59.9497C43.2435 56.3787 38.1338 51.7249 33.2331 45.7034C30.8587 42.7022 29.2631 40.1758 28.1044 37.6115C29.662 36.1868 31.1056 34.7052 32.5113 33.2806C33.0431 32.7487 33.575 32.1979 34.1069 31.666C38.0958 27.677 38.0958 22.5104 34.1069 18.5214L28.9212 13.3357C28.3323 12.7469 27.7245 12.139 27.1546 11.5312C26.0149 10.3535 24.8183 9.1378 23.5836 7.99809C21.741 6.17456 19.5376 5.20581 17.2202 5.20581C14.9028 5.20581 12.6614 6.17456 10.7619 7.99809C10.7429 8.01709 10.7429 8.01709 10.7239 8.03608L4.26553 14.5514C1.83416 16.9828 0.447514 19.946 0.143592 23.3841C-0.312291 28.9307 1.32129 34.0974 2.57497 37.4785C5.65218 45.7794 10.249 53.4724 17.1062 61.7163C25.4261 71.6507 35.4365 79.4957 46.8716 85.0233C51.2405 87.0938 57.072 89.5441 63.5873 89.962C63.9862 89.981 64.4041 90 64.784 90C69.1719 90 72.8569 88.4234 75.7442 85.2892C75.7632 85.2512 75.8011 85.2322 75.8201 85.1942C76.8079 83.9976 77.9476 82.9148 79.1443 81.7561C79.9611 80.9773 80.7969 80.1605 81.6137 79.3058C83.4942 77.3493 84.4819 75.0698 84.4819 72.7335C84.4819 70.3781 83.4752 68.1176 81.5567 66.2181L71.1283 55.7518ZM77.9286 75.7537C77.9096 75.7537 77.9096 75.7727 77.9286 75.7537C77.1878 76.5515 76.428 77.2733 75.6112 78.0711C74.3765 79.2488 73.1228 80.4835 71.9451 81.8701C70.0266 83.9216 67.7662 84.8903 64.803 84.8903C64.518 84.8903 64.2141 84.8903 63.9292 84.8713C58.2876 84.5104 53.045 82.307 49.113 80.4265C38.3618 75.2218 28.9212 67.8327 21.0762 58.4681C14.5989 50.6611 10.268 43.443 7.39973 35.693C5.63318 30.9632 4.98735 27.2781 5.27227 23.802C5.46222 21.5796 6.31701 19.7371 7.8936 18.1605L14.3709 11.6831C15.3017 10.8094 16.2894 10.3345 17.2582 10.3345C18.4549 10.3345 19.4236 11.0563 20.0315 11.6642C20.0505 11.6831 20.0695 11.7021 20.0885 11.7211C21.2472 12.8039 22.3489 13.9246 23.5076 15.1213C24.0964 15.7291 24.7043 16.3369 25.3121 16.9638L30.4978 22.1495C32.5113 24.1629 32.5113 26.0245 30.4978 28.0379C29.9469 28.5888 29.4151 29.1397 28.8642 29.6715C27.2686 31.3051 25.749 32.8247 24.0964 34.3063C24.0584 34.3443 24.0205 34.3633 24.0015 34.4013C22.3679 36.0349 22.6718 37.6305 23.0137 38.7132C23.0327 38.7702 23.0517 38.8272 23.0707 38.8842C24.4194 42.1513 26.3189 45.2285 29.2061 48.8946L29.2251 48.9136C34.4678 55.3719 39.9954 60.4056 46.0928 64.2616C46.8716 64.7555 47.6694 65.1544 48.4292 65.5343C49.113 65.8762 49.7588 66.1991 50.3097 66.541C50.3857 66.579 50.4617 66.636 50.5376 66.674C51.1835 66.9969 51.7913 67.1489 52.4182 67.1489C53.9948 67.1489 54.9825 66.1611 55.3054 65.8382L61.8017 59.3419C62.4476 58.6961 63.4733 57.9173 64.67 57.9173C65.8477 57.9173 66.8165 58.6581 67.4053 59.3039C67.4243 59.3229 67.4243 59.3229 67.4433 59.3419L77.9096 69.8082C79.8661 71.7457 79.8661 73.7402 77.9286 75.7537Z" fill="#4E4038"/>
<path d="M48.6381 21.4087C53.6148 22.2445 58.1357 24.5999 61.7447 28.2089C65.3538 31.818 67.6902 36.3389 68.545 41.3156C68.7539 42.5692 69.8367 43.443 71.0714 43.443C71.2233 43.443 71.3563 43.424 71.5082 43.405C72.9139 43.1771 73.8446 41.8474 73.6167 40.4418C72.591 34.4203 69.7417 28.9308 65.3918 24.5809C61.0419 20.231 55.5523 17.3817 49.5309 16.356C48.1253 16.128 46.8146 17.0588 46.5677 18.4454C46.3207 19.8321 47.2325 21.1807 48.6381 21.4087Z" fill="#4E4038"/>
<path d="M89.8957 39.701C88.2052 29.7855 83.5324 20.7628 76.3522 13.5827C69.1721 6.40252 60.1494 1.72972 50.2339 0.0391558C48.8473 -0.207781 47.5366 0.741975 47.2897 2.12862C47.0617 3.53426 47.9925 4.84492 49.3981 5.09186C58.2499 6.59247 66.3228 10.7904 72.7431 17.1917C79.1635 23.6121 83.3424 31.685 84.843 40.5367C85.052 41.7904 86.1347 42.6642 87.3694 42.6642C87.5213 42.6642 87.6543 42.6452 87.8063 42.6262C89.1929 42.4173 90.1427 41.0876 89.8957 39.701Z" fill="#4E4038"/>
</svg>
