<svg width="90" height="90" viewBox="0 0 90 90" fill="none" xmlns="http://www.w3.org/2000/svg">
<path d="M30.3311 68.889C30.3082 68.7765 30.2748 68.6658 30.2309 68.5585C30.1869 68.4531 30.1324 68.3511 30.0691 68.2562C30.0059 68.1595 29.932 68.0699 29.8512 67.989C29.7703 67.9082 29.6807 67.8343 29.584 67.771C29.4891 67.7078 29.3871 67.6533 29.2799 67.6093C29.1744 67.5654 29.0637 67.5302 28.9512 67.5091C28.7244 67.4634 28.4906 67.4634 28.2656 67.5091C28.1531 67.5302 28.0424 67.5654 27.9352 67.6093C27.8297 67.6533 27.7277 67.7078 27.6328 67.771C27.5361 67.8343 27.4465 67.9082 27.3656 67.989C27.2848 68.0699 27.2109 68.1595 27.1477 68.2562C27.0826 68.3511 27.0299 68.4531 26.9859 68.5585C26.942 68.6658 26.9068 68.7765 26.8857 68.889C26.8629 69.0015 26.8506 69.1175 26.8506 69.2318C26.8506 69.346 26.8629 69.4621 26.8857 69.5746C26.9068 69.6871 26.942 69.7978 26.9859 69.9033C27.0299 70.0105 27.0826 70.1125 27.1477 70.2074C27.2109 70.3041 27.2848 70.3937 27.3656 70.4746C27.4465 70.5554 27.5361 70.6292 27.6328 70.6925C27.7277 70.756 27.8297 70.8105 27.9352 70.8544C28.0424 70.8984 28.1531 70.9335 28.2656 70.9546C28.3781 70.9775 28.4941 70.9898 28.6084 70.9898C28.7227 70.9898 28.8387 70.9775 28.9512 70.9546C29.0637 70.9335 29.1744 70.8984 29.2799 70.8544C29.3871 70.8105 29.4891 70.7558 29.584 70.6925C29.6807 70.6292 29.7703 70.5554 29.8512 70.4746C29.932 70.3937 30.0059 70.3041 30.0691 70.2074C30.1324 70.1125 30.1869 70.0105 30.2309 69.9033C30.2748 69.7978 30.3082 69.6871 30.3311 69.5746C30.3539 69.4621 30.3662 69.346 30.3662 69.2318C30.3662 69.1175 30.3539 69.0015 30.3311 68.889Z" fill="#4E4038"/>
<path d="M80.8581 69.4304C80.8513 69.4128 80.8443 69.3954 80.8369 69.3782C79.219 65.5924 75.4246 64.1932 70.9341 65.7269L58.6877 69.1135C57.9797 66.9693 56.2136 65.1447 53.7165 64.218C53.701 64.2123 53.6855 64.2067 53.6699 64.2014L40.2084 59.6325C39.0879 58.1843 35.5783 54.4785 29.0071 54.4785C24.4148 54.4785 20.3523 57.6288 18.0281 61.0627H1.75781C0.786973 61.0627 0 61.8497 0 62.8205V84.9825C0 85.9533 0.786973 86.7403 1.75781 86.7403H12.2092C13.1801 86.7403 13.967 85.9533 13.967 84.9825V83.4648H18.8684C19.8392 83.4648 20.6262 82.6778 20.6262 81.707V81.2011C23.4833 81.4503 24.423 81.9923 27.0471 83.5054C29.0651 84.6691 32.1151 86.4278 37.6075 88.8973C37.633 88.9087 37.6588 88.9196 37.6847 88.9298C38.7388 89.3445 40.7995 89.9959 43.3401 89.9959C45.1085 89.9959 47.1097 89.6801 49.1639 88.7489L76.2326 79.0571C76.2808 79.0398 76.3283 79.0205 76.3747 78.9991C78.9616 77.8088 82.8167 74.4544 80.8581 69.4304ZM10.4514 83.2245H3.51562V64.5781H10.4514V83.2245ZM17.1105 79.949H13.967V64.5781H17.1105V79.949ZM74.97 75.7747L47.9134 85.4622C47.8897 85.4706 47.8575 85.4833 47.8341 85.4928C47.8104 85.5024 47.7867 85.5126 47.7633 85.5234C43.9951 87.2552 40.4132 86.2184 39.0094 85.6726C33.7039 83.2853 30.8723 81.6525 28.8033 80.4595C25.9269 78.8008 24.5408 78.0013 20.6262 77.6781V63.5203C22.2924 60.7894 25.5236 57.9939 29.0072 57.9939C34.9813 57.9939 37.5128 61.8795 37.6123 62.0363C37.8269 62.3854 38.1568 62.6486 38.5448 62.7803L52.515 67.5218C54.7462 68.3592 55.9253 70.2699 55.3834 72.1754C55.1333 73.0554 54.5553 73.7852 53.7562 74.2305C52.9639 74.6719 52.0481 74.781 51.1752 74.5395L35.4264 69.5487C34.5004 69.2553 33.5129 69.7679 33.2197 70.6934C32.9263 71.6189 33.4389 72.6068 34.3644 72.9002L50.1405 77.8995C50.1572 77.9048 50.1739 77.9099 50.1908 77.9147C50.8206 78.0938 51.4619 78.1824 52.0993 78.1824C53.2661 78.1824 54.4201 77.8851 55.4674 77.3015C57.0869 76.3993 58.2579 74.9202 58.7649 73.1369C58.8053 72.9945 58.8412 72.8522 58.8723 72.7098L72.0705 69.0535C73.9767 68.4024 76.4789 68.1678 77.593 70.7336C78.7461 73.746 75.7491 75.4031 74.97 75.7747Z" fill="#4E4038"/>
<path d="M63.116 23.1228C63.0932 23.0103 63.0598 22.8995 63.0141 22.7923C62.9701 22.6868 62.9174 22.5849 62.8523 22.49C62.7891 22.3933 62.7152 22.3036 62.6344 22.2228C62.5535 22.1419 62.4639 22.0681 62.3672 22.0048C62.2723 21.9415 62.1703 21.887 62.0648 21.8431C61.9576 21.7991 61.8469 21.764 61.7361 21.7429C61.5094 21.6972 61.2756 21.6972 61.0488 21.7429C60.9363 21.764 60.8256 21.7991 60.7201 21.8431C60.6129 21.887 60.5109 21.9415 60.416 22.0048C60.3193 22.0681 60.2297 22.1419 60.1488 22.2228C60.068 22.3036 59.9941 22.3933 59.9309 22.49C59.8676 22.5849 59.8131 22.6868 59.7691 22.7923C59.7252 22.8995 59.69 23.0103 59.6689 23.1228C59.6461 23.2353 59.6338 23.3513 59.6338 23.4656C59.6338 23.5798 59.6461 23.6958 59.6689 23.8083C59.69 23.9208 59.7252 24.0316 59.7691 24.137C59.8131 24.2443 59.8676 24.3462 59.9309 24.4411C59.9941 24.5378 60.068 24.6275 60.1488 24.7083C60.2297 24.7892 60.3193 24.863 60.416 24.9263C60.5109 24.9896 60.6129 25.0441 60.7201 25.088C60.8256 25.132 60.9363 25.1654 61.0488 25.1882C61.1613 25.2111 61.2773 25.2234 61.3916 25.2234C61.5059 25.2234 61.6219 25.2111 61.7361 25.1882C61.8469 25.1654 61.9576 25.132 62.0648 25.088C62.1703 25.0441 62.2723 24.9896 62.3672 24.9263C62.4639 24.863 62.5535 24.7892 62.6344 24.7083C62.7152 24.6275 62.7891 24.5378 62.8523 24.4411C62.9174 24.3462 62.9701 24.2443 63.0141 24.137C63.0598 24.0316 63.0932 23.9208 63.116 23.8083C63.1389 23.6958 63.1494 23.5798 63.1494 23.4656C63.1494 23.3513 63.1389 23.2353 63.116 23.1228Z" fill="#4E4038"/>
<path d="M88.2419 5.9574H77.7904C76.8196 5.9574 76.0326 6.74438 76.0326 7.71522V9.23291H71.1313C70.1605 9.23291 69.3735 10.0199 69.3735 10.9907V11.4966C66.5164 11.2472 65.5766 10.7054 62.9528 9.19231C60.9348 8.02863 57.8848 6.26994 52.3922 3.80039C52.3667 3.78879 52.341 3.77807 52.3148 3.76787C50.5269 3.0644 45.8411 1.6803 40.8365 3.9484L33.763 6.48106L27.8007 0.518909C27.1143 -0.167517 26.0012 -0.167517 25.3148 0.518909L5.74017 20.0934C5.107 20.7267 4.98554 21.8248 5.74017 22.5795L39.1891 56.0283C39.7243 56.5638 40.9776 56.7257 41.6751 56.0283L59.5459 38.1577C60.0105 38.1978 60.4927 38.2194 60.9924 38.2194C65.5849 38.2194 69.6472 35.0691 71.9712 31.6354H88.2419C89.2127 31.6354 89.9997 30.8484 89.9997 29.8775V7.71522C89.9997 6.74438 89.2127 5.9574 88.2419 5.9574ZM26.5576 4.24776L30.564 8.25416C29.3731 8.99069 27.9962 9.38479 26.5576 9.38479C25.1188 9.38479 23.7421 8.99086 22.5512 8.25416L26.5576 4.24776ZM13.4756 25.3429L9.46919 21.3363L13.4756 17.3299C14.2121 18.5208 14.6062 19.8977 14.6062 21.3363C14.6062 22.7749 14.2123 24.1518 13.4756 25.3429ZM40.4322 52.2993L36.4265 48.2936C38.8721 46.7844 41.9919 46.7844 44.4377 48.2936L40.4322 52.2993ZM46.9704 45.7613C43.086 42.9435 37.7784 42.9435 33.894 45.7613L16.0081 27.8752C17.3808 25.9873 18.1218 23.7196 18.1218 21.3363C18.1218 18.9529 17.3809 16.6853 16.0081 14.7974L20.0189 10.7868C21.9068 12.1595 24.1743 12.9006 26.5578 12.9006C28.9412 12.9006 31.2088 12.1595 33.0967 10.7868L36.8986 14.5888C36.0783 14.7099 35.2783 14.9803 34.5323 15.396C33.2723 16.098 32.2837 17.1494 31.6681 18.4213C29.6853 18.7886 27.8496 19.7485 26.4096 21.1883C22.5028 25.0952 22.5028 31.452 26.4098 35.3589C28.363 37.3122 30.9289 38.289 33.495 38.289C36.0609 38.289 38.6269 37.3124 40.5804 35.3589C41.8513 34.088 42.7416 32.526 43.1876 30.8238L49.1226 32.838C48.4545 35.9332 49.1388 39.1894 50.9847 41.747L46.9704 45.7613ZM36.2832 28.4797C36.2987 28.4854 36.3142 28.491 36.3298 28.4962L39.8447 29.6893C39.5793 30.8872 38.9786 31.9887 38.0945 32.873C35.5583 35.4088 31.4317 35.4092 28.8958 32.873C26.3597 30.337 26.3597 26.2106 28.8958 23.6744C29.5075 23.0623 30.2295 22.584 31.0161 22.2597C31.3406 24.9601 33.2849 27.367 36.2832 28.4797ZM53.5175 39.214C52.839 38.1083 52.4551 36.8464 52.3944 35.5584C53.2364 36.1672 54.2655 36.7636 55.4945 37.237L53.5175 39.214ZM69.3733 29.1767C67.7073 31.908 64.4761 34.7034 60.9924 34.7034C60.3406 34.7034 59.7298 34.657 59.1587 34.5744C59.1564 34.5741 59.1541 34.5737 59.1518 34.5734C55.3557 34.0219 53.3136 31.8644 52.6405 31.0101C52.6047 30.9574 52.4519 30.7575 52.4293 30.7243C52.2245 30.3583 51.8887 30.064 51.4605 29.9187L37.4845 25.1752C35.2542 24.3381 34.0752 22.4283 34.6156 20.5235C34.6159 20.5223 34.6163 20.5211 34.6166 20.5198C34.6172 20.5184 34.6175 20.5168 34.6179 20.5154C34.8691 19.6383 35.446 18.9107 36.2433 18.4665C37.0354 18.0251 37.951 17.9156 38.8243 18.1577L54.5731 23.1483C55.4987 23.442 56.4866 22.9291 56.7798 22.0036C57.073 21.0781 56.5606 20.0902 55.6352 19.7968L43.1099 15.8277L43.0005 15.7184C42.9995 15.7173 42.9984 15.7161 42.9972 15.715L36.5126 9.23045L42.0863 7.23463C42.1051 7.22778 42.1283 7.21916 42.1469 7.2116C42.1517 7.20967 42.1608 7.20615 42.1654 7.20422C42.1893 7.19455 42.2128 7.18436 42.2362 7.17363C46.0043 5.44184 49.586 6.47842 50.99 7.0244C56.2956 9.41168 59.1274 11.0445 61.1963 12.2375C64.0728 13.8964 65.4589 14.6957 69.3733 15.0189V29.1767V29.1767ZM76.0326 28.1194H72.8891V12.7485H76.0326V28.1194ZM86.4841 28.1194H79.5483V9.47303H86.4841V28.1194Z" fill="#4E4038"/>
</svg>
