<svg width="90" height="90" viewBox="0 0 90 90" fill="none" xmlns="http://www.w3.org/2000/svg">
<g clip-path="url(#clip0)">
<path d="M55.5448 17.5797C54.5756 17.5797 53.787 16.7911 53.787 15.8218C53.787 14.8526 54.5756 14.064 55.5448 14.064C56.1674 14.064 56.825 14.3817 57.4459 14.9828C58.1436 15.658 59.2563 15.6397 59.9313 14.9419C60.6063 14.2442 60.588 13.1315 59.8903 12.4565C58.9982 11.5933 58.1056 11.1051 57.3023 10.8385V8.79096C57.3023 7.82012 56.5153 7.03333 55.5445 7.03333C54.5736 7.03333 53.7867 7.8203 53.7867 8.79096V10.8509C51.7409 11.5766 50.2712 13.5302 50.2712 15.8218C50.2712 18.7294 52.6367 21.0949 55.5443 21.0949C56.5135 21.0949 57.3021 21.8835 57.3021 22.8527C57.3021 23.822 56.5135 24.6105 55.5443 24.6105C54.7934 24.6105 53.9827 24.1382 53.2618 23.2808C52.6371 22.5376 51.5286 22.4416 50.7854 23.0665C50.0422 23.6912 49.9464 24.8 50.5711 25.5429C51.5108 26.6607 52.6156 27.4394 53.7867 27.8321V29.8834C53.7867 30.8543 54.5736 31.6411 55.5445 31.6411C56.5153 31.6411 57.3021 30.8541 57.3021 29.8834V27.8235C59.3478 27.0978 60.8175 25.1442 60.8175 22.8526C60.8179 19.9451 58.4524 17.5797 55.5448 17.5797Z" fill="#4E4038"/>
<path d="M55.5433 0.00250244C44.8821 0.00250244 36.2085 8.67624 36.2085 19.3373C36.2085 29.9985 44.8822 38.6722 55.5433 38.6722C66.2046 38.6722 74.8782 29.9985 74.8782 19.3373C74.8782 8.67624 66.2046 0.00250244 55.5433 0.00250244ZM55.5433 35.1568C46.8206 35.1568 39.7239 28.0601 39.7239 19.3373C39.7239 10.6146 46.8206 3.51794 55.5433 3.51794C64.2661 3.51794 71.3627 10.6146 71.3627 19.3373C71.3627 28.0601 64.2661 35.1568 55.5433 35.1568Z" fill="#4E4038"/>
<path d="M83.3506 39.1517C80.659 39.0473 78.1432 40.5377 76.9386 42.9465C74.7456 47.3313 72.6684 49.5868 68.6706 51.655C67.4958 49.3625 65.1001 47.8124 62.408 47.8124H44.7957C43.6728 47.8124 42.7656 47.3343 41.5096 46.6727C39.5006 45.6141 37.0003 44.297 32.4917 44.297C24.4374 44.297 16.6125 52.2004 13.3636 57.7372L12.9443 57.318C12.2581 56.6319 11.1449 56.6317 10.4584 57.318L0.514862 67.2614C0.185097 67.5911 -0.000175656 68.0387 1.24967e-07 68.5052C0.000175906 68.9717 0.185976 69.4191 0.516269 69.7487L20.2958 89.4843C20.9809 90.1679 22.0907 90.1695 22.7773 89.4857L32.7207 79.5862C33.4094 78.9005 33.4109 77.7852 32.7235 77.0977L31.1137 75.4879C32.3177 73.7851 35.3858 72.4205 37.5589 72.4205C37.5598 72.4205 37.5609 72.4205 37.5617 72.4205L61.2885 72.4276C61.292 72.4276 61.2955 72.4276 61.2992 72.4276C64.3669 72.4276 67.3095 71.5773 69.8093 69.9687C76.2211 65.8456 85.2392 59.1355 89.5082 48.5113C91.2851 44.0882 88.0204 39.3345 83.3506 39.1517ZM21.5391 85.7584L4.24528 68.5031L11.7016 61.0468C15.8577 65.203 20.2463 69.5924 28.9928 78.338L21.5391 85.7584ZM86.2466 47.2011C82.352 56.8927 73.9155 63.149 67.9077 67.0121C65.9762 68.2552 63.6912 68.9119 61.299 68.9119C61.2962 68.9119 61.2934 68.9119 61.2906 68.9119L37.5637 68.9049C37.5621 68.9049 37.5605 68.9049 37.5588 68.9049C34.4886 68.9049 30.6859 70.4985 28.6145 72.9881L15.9521 60.3259C17.3466 57.4593 24.6353 47.8124 32.4917 47.8124C36.1311 47.8124 38.0323 48.8142 39.8712 49.7828C41.3129 50.5423 42.8035 51.3279 44.7958 51.3279H62.4082C64.1523 51.3279 65.648 52.626 65.8894 54.3592C66.1908 56.4187 64.5736 58.3588 62.4082 58.3588H44.7957C43.8248 58.3588 43.0378 59.1457 43.0378 60.1164C43.0378 61.0872 43.8248 61.8742 44.7957 61.8742H62.408C66.1636 61.8742 69.2408 58.9144 69.4298 55.2049C74.6404 52.6803 77.409 49.8647 80.0828 44.5188C80.6713 43.3416 81.8997 42.6142 83.214 42.6645C85.5271 42.755 87.0922 45.0956 86.2466 47.2011Z" fill="#4E4038"/>
<path d="M21.6456 75.9599L19.1585 73.4745C18.4719 72.7884 17.359 72.789 16.6726 73.4754C15.9863 74.1622 15.9869 75.2749 16.6735 75.9613L19.1606 78.4467C19.847 79.1327 20.9597 79.1325 21.6465 78.4458C22.3327 77.759 22.3322 76.6461 21.6456 75.9599Z" fill="#4E4038"/>
</g>
<defs>
<clipPath id="clip0">
<rect width="90" height="90" fill="white"/>
</clipPath>
</defs>
</svg>
